<?xml version="1.0" encoding="utf-8"?>
<!-- Generator: Adobe Illustrator 26.0.3, SVG Export Plug-In . SVG Version: 6.00 Build 0)  -->
<svg version="1.1" id="Layer_1" xmlns="http://www.w3.org/2000/svg" xmlns:xlink="http://www.w3.org/1999/xlink" x="0px" y="0px"
	 viewBox="0 0 500 500" style="enable-background:new 0 0 500 500;" xml:space="preserve">
<g>
	<path fill="#F6F6F6" d="M458.9,161.9c12,28,18.1,57.4,18.1,88.1s-6,60.1-18.1,88.1s-28.2,52.1-48.4,72.4c-20.3,20.3-44.4,36.4-72.4,48.5
		c-28,12-57.4,18-88.1,18c-33.9,0-66.1-7.1-96.6-21.4c-30.6-14.3-56.6-34.4-78-60.4c-1.4-2-2-4.2-1.9-6.7c0.1-2.5,0.9-4.5,2.5-6.1
		l40.5-40.8c1.9-1.8,4.4-2.7,7.4-2.7c3.1,0.4,5.4,1.6,6.8,3.5c14.4,18.7,32,33.2,52.9,43.4c20.9,10.3,43.1,15.4,66.5,15.4
		c20.5,0,40-4,58.7-12s34.7-18.8,48.4-32.4c13.6-13.6,24.4-29.7,32.3-48.3c8-18.6,12-38.2,12-58.7s-4-40-12-58.7
		c-8-18.6-18.8-34.7-32.3-48.3c-13.6-13.6-29.7-24.4-48.4-32.4c-18.6-8-38.1-12-58.7-12c-19.3,0-37.8,3.5-55.6,10.5
		c-17.7,7-33.5,17-47.3,30l40.5,40.8c6.1,5.9,7.5,12.7,4.1,20.4c-3.3,7.9-9.1,11.8-17.4,11.8H41.9c-5.1,0-9.6-1.9-13.3-5.6
		s-5.6-8.2-5.6-13.3V60.8c0-8.3,3.9-14.1,11.8-17.4c7.7-3.4,14.5-2,20.4,4.1l38.4,38.1c21.1-19.9,45.2-35.3,72.2-46.3
		C193,28.5,221,23,250,23c30.7,0,60.1,6,88.1,18c28,12,52.1,28.2,72.4,48.5C430.8,109.8,446.9,134,458.9,161.9z"/>
</g>
</svg>
